<?xml version="1.0" encoding="UTF-8" standalone="no"?>
<!DOCTYPE svg PUBLIC "-//W3C//DTD SVG 1.1//EN" "http://www.w3.org/Graphics/SVG/1.1/DTD/svg11.dtd">
<svg width="100%" height="100%" viewBox="0 0 190 190" version="1.1" xmlns="http://www.w3.org/2000/svg" xmlns:xlink="http://www.w3.org/1999/xlink" xml:space="preserve" style="fill-rule:evenodd;clip-rule:evenodd;stroke-linejoin:round;stroke-miterlimit:1.41421;">
    <path d="M13.657,97.531L0,152.012L152.012,189.867L164.333,140.582L149.488,140.582L167.301,68.881L182.146,68.881L189.866,37.856L37.854,0L20.634,68.881C20.634,68.881 29.393,104.211 30.135,107.033C31.323,111.338 31.768,116.088 31.768,117.721L32.065,117.721C32.065,116.237 32.659,111.338 33.698,107.033C35.035,101.836 43.199,68.881 43.199,68.881L59.825,68.881L69.326,107.182C70.514,111.487 70.959,116.237 70.959,117.87L71.256,117.87C71.256,116.386 71.85,111.487 72.889,107.182L82.538,68.881L96.789,68.881L78.976,140.582L63.388,140.582L53.145,99.906C52.106,95.453 51.661,90.851 51.661,89.218L51.364,89.218C51.364,91.741 50.919,95.601 49.88,99.906L39.785,140.433L24.197,140.433L13.657,97.531ZM122.024,68.881C122.024,68.881 129.892,100.203 130.783,104.211C131.822,108.518 133.01,114.752 132.713,116.83L133.01,116.83L145.034,68.881L159.433,68.881L141.62,140.582L125.588,140.582C125.588,140.582 118.017,110.447 117.275,107.033C115.791,101.242 114.009,92.929 114.603,90.109L114.306,90.109L101.688,140.582L87.288,140.582L105.101,68.881L122.024,68.881" style="fill:#b8cec7;fill-rule:nonzero;"/>
</svg>
